<?xml version="1.0" encoding="UTF-8"?>
<svg width="297px" height="130px" viewBox="0 0 297 130" version="1.1" xmlns="http://www.w3.org/2000/svg" xmlns:xlink="http://www.w3.org/1999/xlink">
    <title>1</title>
    <defs>
        <linearGradient x1="2.25819807%" y1="62.4525316%" x2="100%" y2="39.0415664%" id="linearGradient-1">
            <stop stop-color="#32843B" offset="0%"></stop>
            <stop stop-color="#C1D13C" offset="100%"></stop>
        </linearGradient>
        <rect id="path-2" x="0" y="0" width="297" height="130" rx="9"></rect>
        <linearGradient x1="2.25819807%" y1="61.6748312%" x2="100%" y2="39.7259556%" id="linearGradient-4">
            <stop stop-color="#32843B" offset="0%"></stop>
            <stop stop-color="#C1D13C" offset="100%"></stop>
        </linearGradient>
        <linearGradient x1="50%" y1="0%" x2="50%" y2="165.459056%" id="linearGradient-5">
            <stop stop-color="#FFFFFF" offset="0%"></stop>
            <stop stop-color="#E1FDCE" stop-opacity="0.387428977" offset="100%"></stop>
        </linearGradient>
    </defs>
    <g id="页面-1" stroke="none" stroke-width="1" fill="none" fill-rule="evenodd">
        <g id="首页" transform="translate(-255.000000, -103.000000)">
            <g id="1" transform="translate(255.000000, 103.000000)">
                <g id="编组">
                    <g id="矩形">
                        <mask id="mask-3" fill="white">
                            <use xlink:href="#path-2"></use>
                        </mask>
                        <use id="蒙版" fill="url(#linearGradient-1)" xlink:href="#path-2"></use>
                        <path d="M-41.8061377,-11.7866773 L314.356615,15.2377231 C318.749522,15.5710417 322.255433,19.0353797 322.641127,23.423998 L332.934315,140.544983 C333.369476,145.49646 329.708278,149.863194 324.756801,150.298355 C324.268237,150.341292 323.776981,150.344222 323.28794,150.307115 L-32.8748128,123.282715 C-37.2677196,122.949396 -40.7736301,119.485058 -41.1593243,115.09644 L-51.4525123,-2.02454485 C-51.8876733,-6.97602229 -48.2264755,-11.3427556 -43.274998,-11.7779166 C-42.7864345,-11.820854 -42.2951786,-11.823784 -41.8061377,-11.7866773 Z" fill="url(#linearGradient-4)" mask="url(#mask-3)" transform="translate(140.740901, 69.260219) rotate(-24.000000) translate(-140.740901, -69.260219) "></path>
                    </g>
                    <text id="电子税务局系统" font-family="PingFangSC-Medium, PingFang SC" font-size="16" font-weight="400" fill="#FFFFFF">
                        <tspan x="101.7" y="71">电子税务局系统</tspan>
<!--                        <tspan x="101.7" y="82">V1.0</tspan>-->
                    </text>
                </g>
                <g id="财务" transform="translate(33.300000, 42.000000)" fill-rule="nonzero">
                    <rect id="矩形" fill="#000000" opacity="0" x="0" y="0" width="46.8" height="46.8"></rect>
                    <path d="M44.3738154,16.4716981 C43.9320799,16.4716981 43.5724138,16.1114753 43.5724138,15.6507237 L43.5724138,42.5605971 C43.5724138,42.1021081 43.9362838,41.7396227 44.3738154,41.7396227 L2.42618462,41.7396227 C2.86792013,41.7396227 3.22758622,42.0998454 3.22758622,42.5605971 L3.22758622,15.6507237 C3.22758622,16.1092126 2.86371622,16.4716981 2.42618462,16.4716981 L44.3738154,16.4716981 Z M0,15.6507237 L0,42.5605971 C0,43.9067767 1.09152929,45 2.42618462,45 L44.3738154,45 C45.7088499,45 46.8,43.9130016 46.8,42.5605971 L46.8,15.6507237 C46.8,14.304544 45.7084707,13.2113208 44.3738154,13.2113208 L2.42618462,13.2113208 C1.09115009,13.2113208 0,14.2983192 0,15.6507237 Z M41.9565631,10.7660378 C42.8478368,10.7660378 43.5703562,10.036177 43.5703562,9.13584907 C43.5703562,8.23552114 42.8478368,7.50566038 41.9565631,7.50566038 L4.84343689,7.50566038 C3.95216316,7.50566038 3.22964378,8.23552114 3.22964378,9.13584907 C3.22964378,10.036177 3.95216316,10.7660378 4.84343689,10.7660378 L41.9565631,10.7660378 Z M12.9124024,1.8 C12.0211287,1.8 11.2986093,2.52986075 11.2986093,3.43018869 C11.2986093,4.33051662 12.0211287,5.06037737 12.9124024,5.06037737 L33.8875976,5.06037737 C34.7788713,5.06037737 35.5013907,4.33051662 35.5013907,3.43018869 C35.5013907,2.52986075 34.7788713,1.8 33.8875976,1.8 L12.9124024,1.8 Z M31.4717655,35.2188679 C32.3630311,35.2188679 33.0855585,34.4890072 33.0855585,33.5886792 C33.0855585,32.6883513 32.3630311,31.9584906 31.4717655,31.9584906 L15.3282345,31.9584906 C14.4369689,31.9584906 13.7144415,32.6883513 13.7144415,33.5886792 C13.7144415,34.4890072 14.4369689,35.2188679 15.3282345,35.2188679 L31.4717655,35.2188679 Z M15.3282345,26.2528302 C14.4369689,26.2528302 13.7144415,26.9826909 13.7144415,27.8830189 C13.7144415,28.7833468 14.4369689,29.5132075 15.3282345,29.5132075 L31.4717655,29.5132075 C32.3630311,29.5132075 33.0855585,28.7833468 33.0855585,27.8830189 C33.0855585,26.9826909 32.3630311,26.2528302 31.4717655,26.2528302 L15.3282345,26.2528302 Z M21.7862069,38.4816661 C21.7862069,39.3819941 22.5087263,40.1118548 23.4,40.1118548 C24.2912737,40.1118548 25.0137931,39.3819941 25.0137931,38.4816661 L25.0137931,28.6956924 C25.0137931,27.7953645 24.2912737,27.0655037 23.4,27.0655037 C22.5087263,27.0655037 21.7862069,27.7953645 21.7862069,28.6956924 L21.7862069,38.4816661 Z M25.1130979,28.0384077 L30.8158957,22.2776713 C31.4461223,21.6410435 31.4461223,20.6088651 30.8158957,19.9722365 C30.1856692,19.3356087 29.1638719,19.3356087 28.5336453,19.9722365 L22.8308475,25.7329728 C23.1465619,25.4140557 23.6522359,25.4128372 23.9691525,25.7329728 C23.338926,25.096345 22.3171287,25.096345 21.6869021,25.7329728 C21.0566756,26.3696014 21.0566756,27.4017799 21.6869021,28.0384077 C22.6328835,28.9939973 24.1707879,28.9902919 25.1130979,28.0384077 Z M21.6869021,28.0384077 C22.3171287,28.6750363 23.338926,28.6750363 23.9691525,28.0384077 C24.5993791,27.4017799 24.5993791,26.3696014 23.9691525,25.7329728 L18.2663547,19.9722365 C17.6361281,19.3356087 16.6143308,19.3356087 15.9841043,19.9722365 C15.3538777,20.6088651 15.3538777,21.6410435 15.9841043,22.2776713 L21.6869021,28.0384077 Z" id="形状" fill="url(#linearGradient-5)"></path>
                </g>
            </g>
        </g>
    </g>
</svg>
