<?xml version="1.0" encoding="UTF-8"?>
<svg width="297px" height="130px" viewBox="0 0 297 130" version="1.1" xmlns="http://www.w3.org/2000/svg" xmlns:xlink="http://www.w3.org/1999/xlink">
    <title>2</title>
    <defs>
        <linearGradient x1="2.25819807%" y1="62.4525316%" x2="100%" y2="39.0415664%" id="linearGradient-1">
            <stop stop-color="#055E88" offset="0%"></stop>
            <stop stop-color="#40CB65" offset="100%"></stop>
        </linearGradient>
        <rect id="path-2" x="0" y="0" width="297" height="130" rx="9"></rect>
        <linearGradient x1="2.25819807%" y1="61.6748312%" x2="100%" y2="39.7259556%" id="linearGradient-4">
            <stop stop-color="#055E88" offset="0%"></stop>
            <stop stop-color="#40CB65" offset="100%"></stop>
        </linearGradient>
        <linearGradient x1="50%" y1="0%" x2="50%" y2="99.5629371%" id="linearGradient-5">
            <stop stop-color="#FFFFFF" offset="0%"></stop>
            <stop stop-color="#94ECE9" offset="100%"></stop>
        </linearGradient>
    </defs>
    <g id="页面-1" stroke="none" stroke-width="1" fill="none" fill-rule="evenodd">
        <g id="首页" transform="translate(-572.000000, -103.000000)">
            <g id="编组-13" transform="translate(255.000000, 103.000000)">
                <g id="2" transform="translate(317.000000, 0.000000)">
                    <g id="编组">
                        <g id="矩形">
                            <mask id="mask-3" fill="white">
                                <use xlink:href="#path-2"></use>
                            </mask>
                            <use id="蒙版" fill="url(#linearGradient-1)" xlink:href="#path-2"></use>
                            <path d="M-41.8061377,-11.7866773 L314.356615,15.2377231 C318.749522,15.5710417 322.255433,19.0353797 322.641127,23.423998 L332.934315,140.544983 C333.369476,145.49646 329.708278,149.863194 324.756801,150.298355 C324.268237,150.341292 323.776981,150.344222 323.28794,150.307115 L-32.8748128,123.282715 C-37.2677196,122.949396 -40.7736301,119.485058 -41.1593243,115.09644 L-51.4525123,-2.02454485 C-51.8876733,-6.97602229 -48.2264755,-11.3427556 -43.274998,-11.7779166 C-42.7864345,-11.820854 -42.2951786,-11.823784 -41.8061377,-11.7866773 Z" fill="url(#linearGradient-4)" mask="url(#mask-3)" transform="translate(140.740901, 69.260219) rotate(-24.000000) translate(-140.740901, -69.260219) "></path>
                        </g>
                        <g id="编组-3" transform="translate(99.900000, 41.000000)" fill="#FFFFFF" font-family="PingFangSC-Medium, PingFang SC" font-size="16.2" font-weight="400">
                            <text id="个人所得税系统">
                                <tspan x="0" y="30">个人所得税系统</tspan>
<!--                                <tspan x="0" y="40">实景实操练习版 V1.0</tspan>-->
                            </text>
                        </g>
                    </g>
                    <g id="业务" transform="translate(31.500000, 43.000000)" fill-rule="nonzero">
                        <rect id="矩形" fill="#000000" opacity="0" x="0" y="0" width="43.2" height="43.2"></rect>
                        <path d="M17.1341541,13.0397344 C17.1341541,12.1428281 17.8595878,11.4155156 18.7541488,11.4155156 L31.5310611,11.4155156 C32.4260439,11.4155156 33.1510559,12.1428281 33.1510559,13.0397344 C33.1510559,13.9370625 32.4260439,14.664375 31.5310611,14.664375 L18.7541488,14.664375 C17.8595878,14.664375 17.1341541,13.9370625 17.1341541,13.0397344 Z M18.7541488,19.9053281 L31.5310611,19.9053281 C32.4260439,19.9053281 33.1510559,19.1780156 33.1510559,18.2811094 C33.1510559,17.3837812 32.4260439,16.6568906 31.5310611,16.6568906 L18.7541488,16.6568906 C17.8595878,16.6568906 17.1341541,17.3837812 17.1341541,18.2811094 C17.1341541,19.1780156 17.8595878,19.9053281 18.7541488,19.9053281 Z M43.2,30.3960938 L43.2,39.7132031 C43.2,41.6361094 41.6382087,43.2 39.7221358,43.2 L3.47786424,43.2 C1.55968251,43.2 0,41.634 0,39.7132031 L0,30.3960938 C0,29.2047188 0.600591641,28.1521406 1.50991438,27.5243906 L1.50991438,8.96189063 C1.51371025,6.0075 3.90131508,3.61378125 6.84775694,3.61040625 L8.91271247,3.61040625 C9.64869029,1.45589063 11.6659865,0.006328125 13.9371845,0 L36.3568825,0 C39.3037461,0.004640625 41.6909291,2.39920313 41.6943033,5.35359375 L41.6943033,27.5222813 C42.6015172,28.1546719 43.2,29.2051406 43.2,30.3960938 Z M11.8355356,5.35359375 L11.8355356,26.9046562 L15.5964033,26.9046562 C16.427278,26.9050781 17.12361,27.5357812 17.2079627,28.3643437 C17.2944243,29.2156875 19.0076288,30.3977812 21.5993674,30.3977812 C24.1915276,30.3977812 25.9043104,29.2131562 25.990772,28.3643437 C26.0751247,27.5353594 26.771035,26.9046562 27.6023314,26.9046562 L38.4484091,26.9046562 L38.4484091,5.35359375 C38.4471438,4.19259375 37.5091411,3.25096875 36.3509778,3.24885937 L13.9329669,3.24885937 C12.7752253,3.25223437 11.8376444,4.19301562 11.8355356,5.35359375 Z M4.74821678,8.96189062 L4.74821678,26.9046562 L8.59301551,26.9046562 L8.59301551,6.86095312 L6.8435393,6.86095312 C5.68706298,6.86348437 4.7503256,7.80257812 4.74821678,8.96189062 Z M39.9600289,30.3960938 C39.9608,30.3325906 39.9361316,30.2714161 39.8915147,30.2262325 C39.8468977,30.181049 39.7860489,30.155625 39.7225575,30.155625 L28.7769436,30.155625 C27.7166294,32.2215469 24.9190702,33.64875 21.6010544,33.64875 C18.2830387,33.64875 15.4859012,32.2215469 14.4209476,30.155625 L3.47786424,30.155625 C3.41459967,30.155625 3.35386568,30.1809375 3.30915872,30.2260781 C3.26470504,30.2714511 3.23999241,30.3325666 3.24040598,30.3960937 L3.24040598,39.7132031 C3.24040598,39.8473594 3.34416511,39.9511406 3.47786424,39.9511406 L39.7221358,39.9511406 C39.7849786,39.9511406 39.8457126,39.92625 39.8904195,39.8815312 C39.9348948,39.8367929 39.9600289,39.7762952 39.9600289,39.7132031 L39.9600289,30.3960938 Z" id="形状" fill="url(#linearGradient-5)"></path>
                    </g>
                </g>
            </g>
        </g>
    </g>
</svg>
