<?xml version="1.0" encoding="UTF-8"?>
<svg width="297px" height="130px" viewBox="0 0 297 130" version="1.1" xmlns="http://www.w3.org/2000/svg" xmlns:xlink="http://www.w3.org/1999/xlink">
    <title>3</title>
    <defs>
        <linearGradient x1="2.25819807%" y1="62.4525316%" x2="100%" y2="39.0415664%" id="linearGradient-1">
            <stop stop-color="#075D8E" offset="0%"></stop>
            <stop stop-color="#31CAA4" offset="100%"></stop>
        </linearGradient>
        <rect id="path-2" x="0" y="0" width="297" height="130" rx="9"></rect>
        <linearGradient x1="2.25819807%" y1="61.6748312%" x2="100%" y2="39.7259556%" id="linearGradient-4">
            <stop stop-color="#075D8E" offset="0%"></stop>
            <stop stop-color="#31CAA4" offset="100%"></stop>
        </linearGradient>
        <linearGradient x1="50%" y1="0%" x2="50%" y2="100%" id="linearGradient-5">
            <stop stop-color="#FFFFFF" offset="0%"></stop>
            <stop stop-color="#8BD9E7" offset="100%"></stop>
        </linearGradient>
    </defs>
    <g id="页面-1" stroke="none" stroke-width="1" fill="none" fill-rule="evenodd">
        <g id="首页" transform="translate(-889.000000, -103.000000)">
            <g id="编组-13" transform="translate(255.000000, 103.000000)">
                <g id="3" transform="translate(634.000000, 0.000000)">
                    <g id="编组">
                        <g id="矩形">
                            <mask id="mask-3" fill="white">
                                <use xlink:href="#path-2"></use>
                            </mask>
                            <use id="蒙版" fill="url(#linearGradient-1)" xlink:href="#path-2"></use>
                            <path d="M-41.8061377,-11.7866773 L314.356615,15.2377231 C318.749522,15.5710417 322.255433,19.0353797 322.641127,23.423998 L332.934315,140.544983 C333.369476,145.49646 329.708278,149.863194 324.756801,150.298355 C324.268237,150.341292 323.776981,150.344222 323.28794,150.307115 L-32.8748128,123.282715 C-37.2677196,122.949396 -40.7736301,119.485058 -41.1593243,115.09644 L-51.4525123,-2.02454485 C-51.8876733,-6.97602229 -48.2264755,-11.3427556 -43.274998,-11.7779166 C-42.7864345,-11.820854 -42.2951786,-11.823784 -41.8061377,-11.7866773 Z" fill="url(#linearGradient-4)" mask="url(#mask-3)" transform="translate(140.740901, 69.260219) rotate(-24.000000) translate(-140.740901, -69.260219) "></path>
                        </g>
                        <g id="编组-3" transform="translate(99.900000, 42.666667)" fill="#FFFFFF" font-family="PingFangSC-Medium, PingFang SC" font-size="16.2" font-weight="400">
                            <text id="防伪开票系统">
                                <tspan x="0" y="30">防伪开票系统</tspan>
<!--                                <tspan x="0" y="40">V1.0</tspan>-->
                            </text>
                        </g>
                    </g>
                    <g id="证书" transform="translate(32.200000, 39.000000)" fill="url(#linearGradient-5)" fill-rule="nonzero">
                        <path d="M17.3127005,30.7291816 L16.9041894,28.9171503 C16.8929973,28.8613955 16.8706131,28.8112162 16.8426329,28.7666123 C16.7027318,28.5603195 16.4285257,28.5045647 16.2214721,28.6439517 L14.917594,29.5137268 L14.917594,20.8159765 C14.917594,20.5706554 14.7161364,20.3699381 14.4699105,20.3699381 L9.93711542,20.3699381 C9.69088951,20.3699381 9.48943195,20.5706554 9.48943195,20.8159765 L9.48943195,22.8231497 C9.48943195,23.0684708 9.69088951,23.2691881 9.93711542,23.2691881 L12.0076515,23.2691881 L12.0076515,33.9964134 C12.0076515,34.0911966 12.0356317,34.1804043 12.0915921,34.258461 C12.2370892,34.4591784 12.5168914,34.5037822 12.718349,34.3588197 L17.1392232,31.1919465 C17.2847203,31.0860124 17.3518728,30.907597 17.3127005,30.7291816 L17.3127005,30.7291816 Z M14.139744,18.6526899 L14.1509361,18.6638409 C14.3300094,18.8311053 14.6154077,18.8199544 14.783289,18.6359635 L16.1319354,17.1751875 C16.2942207,16.9967721 16.2886246,16.7235735 16.1151473,16.5507336 L13.110072,13.6459081 C12.9365946,13.4786436 12.6567925,13.4786436 12.4833151,13.6514835 L11.1010924,15.0286273 C10.9276151,15.2014672 10.9276151,15.4858168 11.1066885,15.6586567 L14.139744,18.6526899 L14.139744,18.6526899 Z M40.7657182,7.37349201 L21.7503629,0.917085099 C21.5209251,0.839028366 21.2131428,0.8 20.9053604,0.8 C20.597578,0.8 20.2897956,0.839028366 20.0603578,0.917085099 L1.04500254,7.37349201 C0.580530947,7.52960548 0.2,8.06485165 0.2,8.55549397 L0.2,35.451614 C0.2,35.9422563 0.518974471,36.5890121 0.905101461,36.8956635 L20.1946629,51.8714053 C20.3905244,52.0219433 20.6423463,52.1 20.8997643,52.1 C21.1571823,52.1 21.4146003,52.0219433 21.6048658,51.8714053 L40.8944272,36.8956635 C41.2805542,36.5945875 41.5997694,35.9478318 41.5997694,35.451614 L41.5997694,8.55549397 C41.6107207,8.06485165 41.2301898,7.53518096 40.7657182,7.37349201 Z M37.5815695,34.3811216 L20.9053604,47.3273883 L4.22915121,34.3811216 L4.22915121,10.5403652 L20.9053604,4.87567656 L37.5815695,10.5403652 L37.5815695,34.3811216 Z M17.5477344,14.4599283 L17.5477344,16.4671014 C17.5477344,16.7124226 17.7491919,16.9131399 17.9954178,16.9131399 L24.0391446,16.9131399 L24.0391446,32.1899576 L21.9126482,32.1899576 L21.9126482,20.4814477 C21.9126482,20.2361265 21.7111906,20.0354092 21.4649647,20.0354092 L19.5063495,20.0354092 C19.2601236,20.0354092 19.0586661,20.2361265 19.0586661,20.4814477 L19.0586661,32.1899576 L17.3238926,32.1899576 C17.0776667,32.1899576 16.8762092,32.3906749 16.8762092,32.6359961 L16.8762092,34.698924 C16.8762092,34.9442452 17.0776667,35.1449625 17.3238926,35.1449625 L30.9782384,35.1449625 C31.2244643,35.1449625 31.4259219,34.9442452 31.4259219,34.698924 L31.4259219,32.6359961 C31.4259219,32.3906749 31.2244643,32.1899576 30.9782384,32.1899576 L26.9490872,32.1899576 L26.9490872,25.3878709 L30.1947923,25.3878709 C30.4410182,25.3878709 30.6424758,25.1871536 30.6424758,24.9418324 L30.6424758,22.9904141 C30.6424758,22.7450929 30.4410182,22.5443756 30.1947923,22.5443756 L26.9490872,22.5443756 L26.9490872,16.9131399 L30.4745945,16.9131399 C30.7208204,16.9131399 30.922278,16.7124226 30.922278,16.4671014 L30.922278,14.4599283 C30.922278,14.2146071 30.7208204,14.0138898 30.4745945,14.0138898 L17.9954178,14.0138898 C17.7491919,14.0138898 17.5477344,14.2146071 17.5477344,14.4599283 Z" id="形状"></path>
                    </g>
                </g>
            </g>
        </g>
    </g>
</svg>
