<?xml version="1.0" encoding="UTF-8"?>
<svg width="297px" height="130px" viewBox="0 0 297 130" version="1.1" xmlns="http://www.w3.org/2000/svg" xmlns:xlink="http://www.w3.org/1999/xlink">
    <title>4</title>
    <defs>
        <linearGradient x1="4.21617069%" y1="54.2681023%" x2="97.3598916%" y2="45.4899586%" id="linearGradient-1">
            <stop stop-color="#2750E9" offset="0%"></stop>
            <stop stop-color="#4CC6F7" offset="100%"></stop>
        </linearGradient>
        <rect id="path-2" x="0" y="0" width="297" height="130" rx="9"></rect>
        <linearGradient x1="4.21617069%" y1="54.0015456%" x2="97.3598916%" y2="45.7716251%" id="linearGradient-4">
            <stop stop-color="#2750E9" offset="0%"></stop>
            <stop stop-color="#4CC6F7" offset="100%"></stop>
        </linearGradient>
        <linearGradient x1="50%" y1="-29.2564082%" x2="50%" y2="124.567974%" id="linearGradient-5">
            <stop stop-color="#FFFFFF" offset="0%"></stop>
            <stop stop-color="#A7C1F2" offset="100%"></stop>
        </linearGradient>
        <linearGradient x1="50%" y1="-29.2564082%" x2="50%" y2="124.567974%" id="linearGradient-6">
            <stop stop-color="#FFFFFF" offset="0%"></stop>
            <stop stop-color="#A7C1F2" offset="100%"></stop>
        </linearGradient>
    </defs>
    <g id="页面-1" stroke="none" stroke-width="1" fill="none" fill-rule="evenodd">
        <g id="首页" transform="translate(-255.000000, -253.000000)">
            <g id="编组-13" transform="translate(255.000000, 103.000000)">
                <g id="4" transform="translate(0.000000, 150.000000)">
                    <g id="编组">
                        <g id="矩形">
                            <mask id="mask-3" fill="white">
                                <use xlink:href="#path-2"></use>
                            </mask>
                            <use id="蒙版" fill="url(#linearGradient-1)" xlink:href="#path-2"></use>
                            <path d="M-41.8061377,-11.7866773 L314.356615,15.2377231 C318.749522,15.5710417 322.255433,19.0353797 322.641127,23.423998 L332.934315,140.544983 C333.369476,145.49646 329.708278,149.863194 324.756801,150.298355 C324.268237,150.341292 323.776981,150.344222 323.28794,150.307115 L-32.8748128,123.282715 C-37.2677196,122.949396 -40.7736301,119.485058 -41.1593243,115.09644 L-51.4525123,-2.02454485 C-51.8876733,-6.97602229 -48.2264755,-11.3427556 -43.274998,-11.7779166 C-42.7864345,-11.820854 -42.2951786,-11.823784 -41.8061377,-11.7866773 Z" fill="url(#linearGradient-4)" mask="url(#mask-3)" transform="translate(140.740901, 69.260219) rotate(-24.000000) translate(-140.740901, -69.260219) "></path>
                        </g>
                        <text id="发票认证系统" font-family="PingFangSC-Medium, PingFang SC" font-size="16.2" font-weight="400" fill="#FFFFFF">
                            <tspan x="101.7" y="70">发票认证系统</tspan>
<!--                            <tspan x="101.7" y="82.5">V1.0</tspan>-->
                        </text>
                    </g>
                    <g id="考试记录" transform="translate(29.700000, 38.000000)" fill-rule="nonzero">
                        <rect id="矩形" fill="#000000" opacity="0" x="0" y="0" width="53.1" height="53.1"></rect>
                        <path d="M16.9750273,26.6183111 C16.0485278,26.6183111 15.3,27.3588424 15.3,28.2754442 C15.3,29.192046 16.0485278,29.9325774 16.9750273,29.9325774 C17.9015267,29.9325774 18.6500545,29.192046 18.6500545,28.2754442 C18.6500545,27.3588424 17.8962923,26.6183111 16.9750273,26.6183111 Z M32.589422,26.6183111 L22.7329335,26.6183111 C21.806434,26.6183111 21.0579062,27.3588424 21.0579062,28.2754442 C21.0579062,29.192046 21.806434,29.9325774 22.7329335,29.9325774 L32.589422,29.9325774 C33.5159215,29.9325774 34.2644493,29.192046 34.2644493,28.2754442 C34.2644493,27.3588424 33.510687,26.6183111 32.589422,26.6183111 Z M16.9750273,33.2364867 C16.0485278,33.2364867 15.3,33.9770181 15.3,34.8936199 C15.3,35.8102217 16.0485278,36.5507531 16.9750273,36.5507531 C17.9015267,36.5507531 18.6500545,35.8102217 18.6500545,34.8936199 C18.6500545,33.9821966 17.8962923,33.2364867 16.9750273,33.2364867 Z M16.9750273,39.8857336 C16.0485278,39.8857336 15.3,40.626265 15.3,41.5428668 C15.3,42.4594686 16.0485278,43.2 16.9750273,43.2 C17.9015267,43.2 18.6500545,42.4594686 18.6500545,41.5428668 C18.6500545,40.626265 17.8962923,39.8857336 16.9750273,39.8857336 Z M19.6131952,12.667321 L17.8544166,12.667321 C17.7549618,12.667321 17.6188659,12.7346421 17.6031625,12.8330344 L16.0747001,21.8178034 C16.0432933,22.0094094 16.1898582,22.1803012 16.3835333,22.1803012 L17.9905125,22.1803012 C18.0899673,22.1803012 18.1789531,22.1078017 18.1946565,22.0094094 L19.8173391,12.9107125 C19.8435115,12.7812489 19.7440567,12.667321 19.6131952,12.667321 L19.6131952,12.667321 Z M24.8476554,21.5744119 C25.4496183,21.0979861 25.8264995,20.523168 25.9992366,19.5340667 L26.74253,15.3756981 C26.9205016,14.3865967 26.7477644,13.8117786 26.3185387,13.3353529 C25.889313,12.8433914 25.1774264,12.6 24.4027263,12.6 C23.6280262,12.6 22.8271538,12.8382129 22.2251908,13.3353529 C21.6232279,13.8117786 21.2463468,14.3865967 21.0736096,15.3756981 L20.3303162,19.5340667 C20.1523446,20.523168 20.3250818,21.0979861 20.7543075,21.5744119 C21.1835333,22.0663733 21.8954198,22.3097648 22.67012,22.3097648 C23.4448201,22.3097648 24.240458,22.0715519 24.8476554,21.5744119 L24.8476554,21.5744119 Z M22.4712105,19.6169233 L23.2406761,15.29802 C23.3348964,14.7698088 23.6699019,14.5160602 24.0572519,14.5160602 C24.444602,14.5160602 24.6906216,14.7698088 24.5964013,15.29802 L23.8269357,19.6169233 C23.7327154,20.1451345 23.3977099,20.3988831 23.0103599,20.3988831 C22.6230098,20.3988831 22.3822246,20.139956 22.4712105,19.6169233 L22.4712105,19.6169233 Z M29.4696838,22.3097648 C30.2443839,22.3097648 31.0452563,22.0715519 31.6472192,21.5744119 C32.2491821,21.0979861 32.6260632,20.523168 32.7988004,19.5340667 L33.5420938,15.3756981 C33.7200654,14.3865967 33.5473282,13.8117786 33.1181025,13.3353529 C32.6888768,12.8433914 31.9769902,12.6 31.2022901,12.6 C30.42759,12.6 29.6267176,12.8382129 29.0247546,13.3353529 C28.4227917,13.8117786 28.0459106,14.3865967 27.8731734,15.3756981 L27.12988,19.5340667 C26.9519084,20.523168 27.1246456,21.0979861 27.5538713,21.5744119 C27.9778626,22.0715519 28.6949836,22.3097648 29.4696838,22.3097648 Z M29.2707743,19.6169233 L30.0402399,15.29802 C30.1344602,14.7698088 30.4694656,14.5160602 30.8568157,14.5160602 C31.2441658,14.5160602 31.4901854,14.7698088 31.3959651,15.29802 L30.6264995,19.6169233 C30.5322792,20.1451345 30.1972737,20.3988831 29.8099237,20.3988831 C29.4225736,20.3988831 29.176554,20.139956 29.2707743,19.6169233 Z M42.4249727,39.8857336 L39.493675,39.8857336 C39.3209378,39.8857336 39.1796074,39.745913 39.1796074,39.5750212 L39.1796074,37.7107463 C39.1796074,36.7941445 38.4310796,36.0536131 37.5045802,36.0536131 C36.5780807,36.0536131 35.8295529,36.7941445 35.8295529,37.7107463 L35.8295529,40.7143002 C35.8295529,42.0866136 36.9549618,43.2 38.3420938,43.2 L42.4249727,43.2 C43.3514722,43.2 44.1,42.4594686 44.1,41.5428668 C44.1,40.6314436 43.3514722,39.8857336 42.4249727,39.8857336 Z M33.0238822,20.6629887 L33.0081788,20.6733457 L32.9977099,20.6888814 C32.9663032,20.7458453 32.9610687,20.7924522 32.9820065,20.8338805 C33.0081788,20.8753089 33.0500545,20.896023 33.1181025,20.896023 L33.1390403,20.896023 L33.1547437,20.8856659 C33.2280262,20.8442376 33.2960742,20.7976307 33.3641221,20.7510239 C33.3745911,20.771738 33.3955289,20.7976307 33.4321701,20.8131664 L33.4478735,20.8235234 L33.7881134,20.8235234 C33.7357688,21.2740565 33.4949836,21.584769 33.0657579,21.7711965 L33.0448201,21.7815536 L33.0343511,21.8022677 C33.0029444,21.8592317 32.9977099,21.9058386 33.0186478,21.9472669 C33.0448201,21.9886952 33.0866957,22.0094094 33.1547437,22.0094094 L33.1704471,22.0094094 L33.1861505,22.0042308 C33.7095965,21.7919106 34.0027263,21.3983415 34.0603053,20.8183449 L34.6884406,20.8183449 C34.7093784,20.8183449 34.7146129,20.8235234 34.7146129,20.8235234 C34.7146129,20.8235234 34.7198473,20.8338805 34.7198473,20.8494161 C34.7198473,21.0306651 34.6989095,21.2740565 34.6675027,21.5692334 C34.6465649,21.709054 34.5837514,21.7349467 34.5366412,21.7401252 C34.4267176,21.7401252 34.2801527,21.7038754 34.1074155,21.6365544 L34.0864776,21.6261973 L34.0655398,21.6313759 C33.9974918,21.6469115 33.9660851,21.6831613 33.9556161,21.709054 C33.9346783,21.7504823 33.9451472,21.8022677 33.976554,21.8592317 L33.9922574,21.8799458 L34.0184297,21.8903029 C34.2121047,21.967981 34.3953108,22.0042308 34.5628135,22.0042308 L34.5732824,22.0042308 C34.7093784,21.9938738 34.8873501,21.9161956 34.9396947,21.6106617 C34.9763359,21.3776273 34.9972737,21.1135217 34.9972737,20.828702 C34.9972737,20.8079878 34.9972737,20.7924522 34.9920393,20.771738 C35.0391494,20.8079878 35.0862595,20.8442376 35.1333697,20.8753089 L35.1490731,20.8856659 C35.1752454,20.896023 35.2014177,20.9012016 35.2223555,20.9012016 C35.2537623,20.9012016 35.2799346,20.8908445 35.3061069,20.8753089 C35.3427481,20.8442376 35.3584515,20.7976307 35.3479826,20.7303097 L35.3427481,20.6992384 L35.3165758,20.6785243 C35.0182116,20.4662041 34.7460196,20.1554916 34.5052345,19.7515654 L34.4947655,19.7360298 L34.4790622,19.7256727 C34.4214831,19.6946015 34.374373,19.6842444 34.3272628,19.7049585 C34.3010905,19.7153156 34.2644493,19.7463869 34.2487459,19.8137079 L34.2435115,19.8396006 L34.2592148,19.8654933 C34.4110142,20.139956 34.5732824,20.3729904 34.7512541,20.5594178 C34.7407852,20.5594178 34.7303162,20.5542393 34.7146129,20.5542393 L33.5944384,20.5542393 C33.77241,20.3729904 33.9137405,20.1503131 34.0079607,19.891386 L34.0131952,19.8706719 L34.0079607,19.8499577 C33.9974918,19.7878152 33.9660851,19.7463869 33.9242094,19.7256727 C33.8770992,19.7101371 33.8247546,19.7204942 33.77241,19.7619225 L33.7567067,19.7774581 L33.7514722,19.7981723 C33.6101418,20.1606702 33.3641221,20.4506685 33.0238822,20.6629887 L33.0238822,20.6629887 Z" id="形状" fill="url(#linearGradient-5)"></path>
                        <path d="M44.9652432,30.1149856 L44.8867063,4.01239193 C44.8867063,3.32766571 44.326476,2.77262248 43.6353509,2.77262248 L9.56602302,2.7 C8.75447456,2.7 8.1,3.34841499 8.1,4.15244957 L8.1,47.7518732 C8.1,48.5559078 8.75447456,49.2043228 9.56602302,49.2043228 L32.158485,49.2043228 C34.0433717,50.521902 36.3418864,51.3 38.8288897,51.3 C45.2217973,51.3 50.4,46.1697406 50.4,39.8360231 C50.3947642,35.7380403 48.2271444,32.1432277 44.9652432,30.1149856 Z M23.1790939,35.9351585 L27.938433,35.9351585 C27.5562198,36.9829971 27.320609,38.1034582 27.268251,39.2706052 L23.1790939,39.2706052 C22.252358,39.2706052 21.5036391,40.0123919 21.5036391,40.9305476 C21.5036391,41.8487032 22.252358,42.5904899 23.1790939,42.5904899 L27.5928704,42.5904899 C27.886075,43.7680115 28.3677683,44.878098 28.9960639,45.8792507 L12.0739696,45.8792507 C11.728407,45.8792507 11.445674,45.5991354 11.445674,45.2567723 L11.445674,6.64236311 C11.445674,6.3 11.728407,6.01988473 12.0739696,6.01988473 L40.9075009,6.08731988 C41.2530635,6.08731988 41.5305607,6.36743516 41.5357965,6.70979827 C41.5619755,13.9668588 41.6090977,28.7040346 41.6090977,28.7040346 C40.7137765,28.4861671 39.7818047,28.3668588 38.8184181,28.3668588 C35.1900111,28.3668588 31.9490531,30.0216138 29.8285555,32.6152738 L23.1790939,32.6152738 C22.252358,32.6152738 21.5036391,33.3570605 21.5036391,34.2752161 C21.5036391,35.1933718 22.252358,35.9351585 23.1790939,35.9351585 L23.1790939,35.9351585 Z M44.6982176,45.5317003 C43.1588934,47.0878963 41.1012254,47.9541787 38.9074267,47.9801153 C36.7345711,48.0008646 34.6245451,47.1657061 33.0695136,45.656196 C31.4987746,44.1311239 30.6243966,42.0925072 30.5982176,39.9190202 C30.5772744,37.7662824 31.4202377,35.6757925 32.9438544,34.1351585 C34.4831786,32.5789625 36.5408466,31.7126801 38.7346454,31.6867435 C40.9075009,31.6659942 43.0175269,32.5011527 44.5725585,34.0106628 C46.1432974,35.5357349 47.0176755,37.5743516 47.0438544,39.7478386 C47.0647976,41.9005764 46.2218344,43.9910663 44.6982176,45.5317003 Z" id="形状" fill="url(#linearGradient-6)"></path>
                    </g>
                </g>
            </g>
        </g>
    </g>
</svg>
