<?xml version="1.0" encoding="UTF-8"?>
<svg width="297px" height="130px" viewBox="0 0 297 130" version="1.1" xmlns="http://www.w3.org/2000/svg" xmlns:xlink="http://www.w3.org/1999/xlink">
    <title>5</title>
    <defs>
        <linearGradient x1="2.25819807%" y1="62.4525316%" x2="100%" y2="45.4166257%" id="linearGradient-1">
            <stop stop-color="#0C3AB3" offset="0%"></stop>
            <stop stop-color="#609DED" offset="100%"></stop>
        </linearGradient>
        <rect id="path-2" x="0" y="0" width="297" height="130" rx="9"></rect>
        <linearGradient x1="2.25819807%" y1="61.6748312%" x2="100%" y2="45.7028721%" id="linearGradient-4">
            <stop stop-color="#0C3AB3" offset="0%"></stop>
            <stop stop-color="#609DED" offset="100%"></stop>
        </linearGradient>
        <linearGradient x1="50%" y1="0%" x2="50%" y2="100%" id="linearGradient-5">
            <stop stop-color="#FFFFFF" offset="0%"></stop>
            <stop stop-color="#537ED8" offset="100%"></stop>
        </linearGradient>
        <linearGradient x1="50%" y1="0%" x2="50%" y2="100%" id="linearGradient-6">
            <stop stop-color="#FFFFFF" offset="0%"></stop>
            <stop stop-color="#86A6E9" offset="100%"></stop>
        </linearGradient>
    </defs>
    <g id="页面-1" stroke="none" stroke-width="1" fill="none" fill-rule="evenodd">
        <g id="首页" transform="translate(-572.000000, -253.000000)">
            <g id="编组-13" transform="translate(255.000000, 103.000000)">
                <g id="5" transform="translate(317.000000, 150.000000)">
                    <g id="编组">
                        <g id="矩形">
                            <mask id="mask-3" fill="white">
                                <use xlink:href="#path-2"></use>
                            </mask>
                            <use id="蒙版" fill="url(#linearGradient-1)" xlink:href="#path-2"></use>
                            <path d="M-41.8061377,-11.7866773 L314.356615,15.2377231 C318.749522,15.5710417 322.255433,19.0353797 322.641127,23.423998 L332.934315,140.544983 C333.369476,145.49646 329.708278,149.863194 324.756801,150.298355 C324.268237,150.341292 323.776981,150.344222 323.28794,150.307115 L-32.8748128,123.282715 C-37.2677196,122.949396 -40.7736301,119.485058 -41.1593243,115.09644 L-51.4525123,-2.02454485 C-51.8876733,-6.97602229 -48.2264755,-11.3427556 -43.274998,-11.7779166 C-42.7864345,-11.820854 -42.2951786,-11.823784 -41.8061377,-11.7866773 Z" fill="url(#linearGradient-4)" mask="url(#mask-3)" transform="translate(140.740901, 69.260219) rotate(-24.000000) translate(-140.740901, -69.260219) "></path>
                        </g>
                        <g id="编组-3" transform="translate(99.900000, 41.666667)" fill="#FFFFFF" font-family="PingFangSC-Medium, PingFang SC" font-size="16.2" font-weight="400">
                            <text id="人力资源和社会保障系统">
                                <tspan x="0" y="30">人力资源和社会保障系统</tspan>
<!--                                <tspan x="0" y="40">实战企业版 V1.0</tspan>-->
                            </text>
                        </g>
                    </g>
                    <g id="企业资料" transform="translate(26.100000, 39.000000)" fill-rule="nonzero">
                        <rect id="矩形" fill="url(#linearGradient-5)" opacity="0" x="0" y="0" width="51.3" height="51.3"></rect>
                        <path d="M14.6571429,45.9 L8.42785712,45.9 C8.13630842,45.9 7.8567008,45.7862146 7.65054474,45.5836753 C7.44438868,45.381136 7.32857141,45.1064338 7.32857141,44.82 L7.32857141,42.3 L0.989357121,42.3 C0.439714243,42.3 0,41.8176 0,41.22 L0,10.98 C0,10.3824 0.439714293,9.89999999 0.989357121,9.89999999 L7.32857141,9.89999999 L7.32857141,7.37999999 C7.32857141,6.78353246 7.82073839,6.3 8.42785712,6.3 L14.6571429,6.3 L14.6571429,3.77999999 C14.6571429,3.18353247 15.1493099,2.7 15.7564286,2.7 L50.2007143,2.7 C50.807833,2.7 51.3,3.18353247 51.3,3.77999999 L51.3,48.42 C51.3,49.0164675 50.807833,49.5 50.2007143,49.5 L15.7564286,49.5 C15.1493099,49.5 14.6571429,49.0164675 14.6571429,48.42 L14.6571429,45.9 L14.6571429,45.9 Z M14.6571429,42.3 L14.6571429,9.89999999 L10.9928571,9.89999999 L10.9928571,42.3 L14.6571429,42.3 Z M7.32857141,13.5 L3.66428571,13.5 L3.66428571,38.7 L7.32857141,38.7 L7.32857141,13.5 Z M18.3214286,6.3 L18.3214286,45.9 L47.6357143,45.9 L47.6357143,6.3 L18.3214286,6.3 Z M23.085,9.89999999 L31.8792857,9.89999999 C32.1708344,9.89999999 32.450442,10.0137854 32.6565981,10.2163247 C32.8627541,10.418864 32.9785714,10.6935662 32.9785714,10.98 L32.9785714,19.62 C32.9785714,20.2164675 32.4864044,20.7 31.8792857,20.7 L23.085,20.7 C22.4778813,20.7 21.9857143,20.2164675 21.9857143,19.62 L21.9857143,10.98 C21.9857143,10.3835325 22.4778813,9.89999999 23.085,9.89999999 L23.085,9.89999999 Z M25.65,17.1 L29.3142857,17.1 L29.3142857,13.5 L25.65,13.5 L25.65,17.1 Z M23.8178571,24.3 L42.1392857,24.3 C43.1511503,24.3 43.9714286,25.1058874 43.9714286,26.1 C43.9714286,27.0941126 43.1511503,27.9 42.1392857,27.9 L23.8178571,27.9 C22.8059926,27.9 21.9857143,27.0941125 21.9857143,26.1 C21.9857143,25.1058875 22.8059926,24.3 23.8178571,24.3 L23.8178571,24.3 Z M23.8178571,31.5 L42.1392857,31.5 C42.7939195,31.4998937 43.3988723,31.8429485 43.7262204,32.3999141 C44.0535686,32.9568797 44.0535686,33.6431203 43.7262204,34.200086 C43.3988723,34.7570516 42.7939195,35.1001064 42.1392857,35.1 L23.8178571,35.1 C22.8061109,35.0998356 21.9860172,34.2939963 21.9860172,33.3 C21.9860172,32.3060037 22.8061109,31.5001644 23.8178571,31.5 L23.8178571,31.5 Z M23.8178571,38.7 L42.1392857,38.7 C42.7939195,38.6998937 43.3988723,39.0429485 43.7262204,39.5999141 C44.0535686,40.1568797 44.0535686,40.8431203 43.7262204,41.4000859 C43.3988723,41.9570516 42.7939195,42.3001064 42.1392857,42.3 L23.8178571,42.3 C23.1632234,42.3001064 22.5582705,41.9570516 22.2309224,41.4000859 C21.9035742,40.8431203 21.9035742,40.1568797 22.2309224,39.5999141 C22.5582705,39.0429485 23.1632234,38.6998937 23.8178571,38.7 L23.8178571,38.7 Z" id="形状" fill="url(#linearGradient-6)"></path>
                    </g>
                </g>
            </g>
        </g>
    </g>
</svg>
