<?xml version="1.0" encoding="UTF-8"?>
<svg width="297px" height="130px" viewBox="0 0 297 130" version="1.1" xmlns="http://www.w3.org/2000/svg" xmlns:xlink="http://www.w3.org/1999/xlink">
    <title>6</title>
    <defs>
        <linearGradient x1="2.25819807%" y1="62.4525316%" x2="100%" y2="39.0415664%" id="linearGradient-1">
            <stop stop-color="#223CC3" offset="0%"></stop>
            <stop stop-color="#6264FC" offset="100%"></stop>
        </linearGradient>
        <rect id="path-2" x="0" y="0" width="297" height="130" rx="9"></rect>
        <linearGradient x1="-43.3121451%" y1="68.8765301%" x2="100%" y2="45.7569296%" id="linearGradient-4">
            <stop stop-color="#223CC3" offset="0%"></stop>
            <stop stop-color="#6264FC" offset="100%"></stop>
        </linearGradient>
        <linearGradient x1="50%" y1="0%" x2="50%" y2="100%" id="linearGradient-5">
            <stop stop-color="#FFFFFF" offset="0%"></stop>
            <stop stop-color="#CDD1FD" offset="100%"></stop>
        </linearGradient>
    </defs>
    <g id="页面-1" stroke="none" stroke-width="1" fill="none" fill-rule="evenodd">
        <g id="首页" transform="translate(-889.000000, -253.000000)">
            <g id="编组-13" transform="translate(255.000000, 103.000000)">
                <g id="6" transform="translate(634.000000, 150.000000)">
                    <g id="编组">
                        <g id="矩形">
                            <mask id="mask-3" fill="white">
                                <use xlink:href="#path-2"></use>
                            </mask>
                            <use id="蒙版" fill="url(#linearGradient-1)" xlink:href="#path-2"></use>
                            <path d="M-41.8061377,-11.7866773 L314.356615,15.2377231 C318.749522,15.5710417 322.255433,19.0353797 322.641127,23.423998 L332.934315,140.544983 C333.369476,145.49646 329.708278,149.863194 324.756801,150.298355 C324.268237,150.341292 323.776981,150.344222 323.28794,150.307115 L-32.8748128,123.282715 C-37.2677196,122.949396 -40.7736301,119.485058 -41.1593243,115.09644 L-51.4525123,-2.02454485 C-51.8876733,-6.97602229 -48.2264755,-11.3427556 -43.274998,-11.7779166 C-42.7864345,-11.820854 -42.2951786,-11.823784 -41.8061377,-11.7866773 Z" fill="url(#linearGradient-4)" mask="url(#mask-3)" transform="translate(140.740901, 69.260219) rotate(-24.000000) translate(-140.740901, -69.260219) "></path>
                        </g>
                        <g id="编组-3" transform="translate(99.900000, 40.666667)" fill="#FFFFFF" font-family="PingFangSC-Medium, PingFang SC" font-size="16.2" font-weight="400">
                            <text id="（建行）网银系统">
                                <tspan x="0" y="30">（建行）网银系统</tspan>
<!--                                <tspan x="0" y="40">V1.0</tspan>-->
                            </text>
                        </g>
                    </g>
                    <g id="文件-账单" transform="translate(26.100000, 37.000000)" fill-rule="nonzero">
                        <rect id="矩形" fill="#000000" opacity="0" x="0" y="0" width="55.8" height="55.8"></rect>
                        <path d="M48.9739479,26.6461903 C49.5567704,25.8751123 50.6619339,25.7165217 51.4371979,26.2961974 C52.2124618,26.8758731 52.3719133,27.9750695 51.7890907,28.7461475 L51.7890907,28.7461475 L46.3237547,35.9920937 L50.3815193,35.9920937 C51.354723,35.9920937 52.1409836,36.7741091 52.1409836,37.7420581 C52.1409836,38.7100071 51.354723,39.4920225 50.3815193,39.4920225 L50.3815193,39.4920225 L50.3815193,39.4974911 L44.5367988,39.4974911 L44.5367988,42.8114861 L50.376021,42.8114861 C51.3492247,42.8114861 52.1354853,43.5935014 52.1354853,44.5614505 C52.1354853,45.5293995 51.3492247,46.3114148 50.376021,46.3114148 L50.376021,46.3114148 L44.5313005,46.3114148 L44.5313005,50.3910192 C44.5313005,51.3589683 43.7450399,52.1409836 42.7718362,52.1409836 C41.7986325,52.1409836 41.0123719,51.3589683 41.0123719,50.3910192 L41.0123719,50.3910192 L41.0123719,46.3059462 L35.1676514,46.3059462 C34.1944477,46.3059462 33.4081871,45.5239309 33.4081871,44.5559818 C33.4081871,43.5880328 34.1944477,42.8060175 35.1676514,42.8060175 L35.1676514,42.8060175 L41.0123719,42.8060175 L41.0123719,39.4920225 L35.1676514,39.4920225 C34.1944477,39.4920225 33.4081871,38.7100071 33.4081871,37.7420581 C33.4081871,36.7741091 34.1944477,35.9920937 35.1676514,35.9920937 L35.1676514,35.9920937 L39.2254159,35.9920937 L33.7600799,28.7461475 C33.1772574,27.9750695 33.3367088,26.8758731 34.1119728,26.2961974 C34.8872368,25.7165217 35.9924003,25.8751123 36.5752228,26.6461903 L36.5752228,26.6461903 L42.7773345,34.8655542 Z M38.6018444,3.65901639 C40.5201032,3.65901639 42.0786885,5.2051927 42.0786885,7.10693569 L42.0786885,7.10693569 L42.0786885,22.6225725 C42.0786885,23.5761377 41.2993959,24.3465322 40.3402665,24.3465322 C39.3811371,24.3465322 38.6018444,23.5761377 38.6018444,22.6225725 L38.6018444,22.6225725 L38.6018444,8.83089533 C38.6018444,7.87733015 37.8225518,7.10693569 36.8634224,7.10693569 L36.8634224,7.10693569 L8.87428253,7.10693569 C7.91515312,7.10693569 7.13586048,7.87733015 7.13586048,8.83089533 L7.13586048,8.83089533 L7.13586048,43.3100883 C7.13586048,44.2636535 7.91515312,45.0340479 8.87428253,45.0340479 L8.87428253,45.0340479 L29.8334398,45.0340479 C30.7980188,45.0340479 31.5718619,45.8044424 31.5718619,46.7580076 C31.5718619,47.7115727 30.7925692,48.4819672 29.8334398,48.4819672 L29.8334398,48.4819672 L7.13586048,48.4819672 C5.21760167,48.4819672 3.65901639,46.9357909 3.65901639,45.0340479 L3.65901639,45.0340479 L3.65901639,7.10693569 C3.65901639,5.2051927 5.21760167,3.65901639 7.13586048,3.65901639 L7.13586048,3.65901639 Z M22.3565519,32.8913756 C23.3242573,32.8913756 24.1105179,33.6733909 24.1105179,34.64134 C24.1105179,35.609289 23.3242573,36.3913043 22.3565519,36.3913043 L22.3565519,36.3913043 L11.8162611,36.3913043 C10.8485557,36.3913043 10.0622951,35.609289 10.0622951,34.64134 C10.0622951,33.6733909 10.8485557,32.8913756 11.8162611,32.8913756 L11.8162611,32.8913756 Z M29.3229309,22.3915895 C30.2906363,22.3915895 31.0768969,23.1736048 31.0768969,24.1415538 C31.0768969,25.1095029 30.2906363,25.8915182 29.3229309,25.8915182 L29.3229309,25.8915182 L11.8162611,25.8915182 C10.8485557,25.8915182 10.0622951,25.1095029 10.0622951,24.1415538 C10.0622951,23.1736048 10.8485557,22.3915895 11.8162611,22.3915895 L11.8162611,22.3915895 Z M32.8968428,11.8918033 C33.8645481,11.8918033 34.6508087,12.6738186 34.6508087,13.6417676 C34.6508087,14.6097167 33.8645481,15.391732 32.8968428,15.391732 L32.8968428,15.391732 L11.8162611,15.391732 C10.8485557,15.391732 10.0622951,14.6097167 10.0622951,13.6417676 C10.0622951,12.6738186 10.8485557,11.8918033 11.8162611,11.8918033 L11.8162611,11.8918033 Z" id="形状结合" fill="url(#linearGradient-5)"></path>
                    </g>
                </g>
            </g>
        </g>
    </g>
</svg>
