<?xml version="1.0" encoding="UTF-8"?>
<svg width="297px" height="130px" viewBox="0 0 297 130" version="1.1" xmlns="http://www.w3.org/2000/svg" xmlns:xlink="http://www.w3.org/1999/xlink">
    <title>7</title>
    <defs>
        <linearGradient x1="2.25819807%" y1="62.4525316%" x2="100%" y2="39.0415664%" id="linearGradient-1">
            <stop stop-color="#8E0808" offset="0%"></stop>
            <stop stop-color="#FA7070" offset="100%"></stop>
        </linearGradient>
        <rect id="path-2" x="0" y="0" width="297" height="130" rx="9"></rect>
        <linearGradient x1="2.25819807%" y1="61.6748312%" x2="100%" y2="39.7259556%" id="linearGradient-4">
            <stop stop-color="#8E0808" offset="0%"></stop>
            <stop stop-color="#FA7070" offset="100%"></stop>
        </linearGradient>
        <linearGradient x1="50%" y1="0%" x2="50%" y2="100%" id="linearGradient-5">
            <stop stop-color="#FFFFFF" offset="0%"></stop>
            <stop stop-color="#EA9494" offset="100%"></stop>
        </linearGradient>
    </defs>
    <g id="页面-1" stroke="none" stroke-width="1" fill="none" fill-rule="evenodd">
        <g id="首页" transform="translate(-255.000000, -403.000000)">
            <g id="编组-13" transform="translate(255.000000, 103.000000)">
                <g id="7" transform="translate(0.000000, 300.000000)">
                    <g id="编组">
                        <g id="矩形">
                            <mask id="mask-3" fill="white">
                                <use xlink:href="#path-2"></use>
                            </mask>
                            <use id="蒙版" fill="url(#linearGradient-1)" xlink:href="#path-2"></use>
                            <path d="M-41.8061377,-11.7866773 L314.356615,15.2377231 C318.749522,15.5710417 322.255433,19.0353797 322.641127,23.423998 L332.934315,140.544983 C333.369476,145.49646 329.708278,149.863194 324.756801,150.298355 C324.268237,150.341292 323.776981,150.344222 323.28794,150.307115 L-32.8748128,123.282715 C-37.2677196,122.949396 -40.7736301,119.485058 -41.1593243,115.09644 L-51.4525123,-2.02454485 C-51.8876733,-6.97602229 -48.2264755,-11.3427556 -43.274998,-11.7779166 C-42.7864345,-11.820854 -42.2951786,-11.823784 -41.8061377,-11.7866773 Z" fill="url(#linearGradient-4)" mask="url(#mask-3)" transform="translate(140.740901, 69.260219) rotate(-24.000000) translate(-140.740901, -69.260219) "></path>
                        </g>
                        <text id="（农行）网银系统" font-family="PingFangSC-Medium, PingFang SC" font-size="16.2" font-weight="400" fill="#FFFFFF">
                            <tspan x="101.7" y="71.5">（农行）网银系统</tspan>
<!--                            <tspan x="101.7" y="84">V1.0</tspan>-->
                        </text>
                    </g>
                    <g id="奖杯" transform="translate(29.700000, 38.000000)" fill-rule="nonzero">
                        <rect id="矩形" fill="#000000" opacity="0" x="0" y="0" width="54" height="54"></rect>
                        <path d="M42.4647824,2.7 L12.4349451,2.7 C10.0401813,2.70430187 8.10089774,4.62135263 8.1,6.98524728 L8.1,21.5261413 C8.10646914,31.3012259 15.5726209,39.5014077 25.4185225,40.5473234 L25.4185225,48.1837745 L16.4292211,48.1837745 C15.3148708,48.1965064 14.4182925,49.0918293 14.4182925,50.1918872 C14.4182925,51.2919452 15.3148708,52.1872681 16.4292211,52.2 L38.4707789,52.2 C39.5851292,52.1872681 40.4817075,51.2919452 40.4817075,50.1918872 C40.4817075,49.0918293 39.5851292,48.1965064 38.4707789,48.1837745 L29.4814775,48.1837745 L29.4814775,40.5473234 C39.3273791,39.5014077 46.7935309,31.3012259 46.8,21.5261413 L46.8,6.98524728 C46.799102,4.6212478 44.8596526,2.70415371 42.4647824,2.7 Z M42.7373176,21.5261413 C42.7373176,29.8601002 35.8930744,36.6161087 27.4502725,36.6161087 C19.0074707,36.6161087 12.1632275,29.8601002 12.1632275,21.5261413 L12.1632275,6.98524728 C12.1632275,6.83667068 12.2852456,6.71622554 12.4357627,6.71622554 L42.4647824,6.71622554 C42.6152994,6.71622554 42.7373176,6.83667068 42.7373176,6.98524728 L42.7373176,21.5261413 Z M35.3954915,15.3340679 L31.9037704,14.7190842 L30.4364408,11.5274103 C30.0266008,10.6345852 29.1383471,10.0492708 28.1458447,10.018023 C27.1533423,9.98677521 26.2291076,10.5150254 25.762462,11.3802554 L24.0923662,14.4740054 L20.5676683,14.865163 C19.5808911,14.9765498 18.7435227,15.6307887 18.4070874,16.5532325 C18.0706521,17.4756763 18.2933859,18.5066527 18.9817859,19.2133614 L21.4405986,21.7394755 L20.7300993,25.172731 C20.5292766,26.1329946 20.8985246,27.1224881 21.6824147,27.7247012 C22.4663049,28.3269143 23.5287013,28.4372623 24.4224063,28.0092962 L27.6135211,26.4780245 L30.6975296,28.2072962 C31.5613815,28.6915096 32.6289104,28.6491528 33.4506042,28.0980614 C34.2722979,27.5469699 34.7053956,26.5828902 34.5675296,25.6117745 L34.0805092,22.1392418 L36.6968472,19.7740027 C37.4297454,19.1120939 37.7188397,18.0971094 37.4427575,17.1551783 C37.1666752,16.2132472 36.3732111,15.5074348 35.3954915,15.3340679 L35.3954915,15.3340679 Z M30.7730218,19.6857636 C30.1396751,20.2584845 29.8321366,21.1020132 29.9505106,21.9417799 L30.1377423,23.2755897 L28.9511239,22.6102989 C28.2050844,22.192604 27.2985433,22.1642311 26.5271958,22.5344348 L25.3007873,23.1227853 L25.5733225,21.8045788 C25.7462979,20.9733957 25.4936172,20.1114317 24.8977077,19.4998696 L23.9539183,18.5292391 L25.309781,18.3780489 C26.1623667,18.2822689 26.9126436,17.7785734 27.3161852,17.0310571 L27.9574606,15.8433261 L28.5216085,17.0706033 C28.8762562,17.8420802 29.5928789,18.3918095 30.4378035,18.540538 L31.7792218,18.7767391 L30.7730218,19.6857636 Z" id="形状" fill="url(#linearGradient-5)"></path>
                    </g>
                </g>
            </g>
        </g>
    </g>
</svg>
