<?xml version="1.0" encoding="UTF-8"?>
<svg width="297px" height="130px" viewBox="0 0 297 130" version="1.1" xmlns="http://www.w3.org/2000/svg" xmlns:xlink="http://www.w3.org/1999/xlink">
    <title>8</title>
    <defs>
        <linearGradient x1="2.25819807%" y1="62.4525316%" x2="100%" y2="39.0415664%" id="linearGradient-1">
            <stop stop-color="#C6310D" offset="0%"></stop>
            <stop stop-color="#FA966A" offset="100%"></stop>
        </linearGradient>
        <rect id="path-2" x="0" y="0" width="297" height="130" rx="9"></rect>
        <linearGradient x1="2.25819807%" y1="61.6748312%" x2="100%" y2="39.7259556%" id="linearGradient-4">
            <stop stop-color="#C6310D" offset="0%"></stop>
            <stop stop-color="#FA966A" offset="100%"></stop>
        </linearGradient>
        <linearGradient x1="50%" y1="0%" x2="50%" y2="100%" id="linearGradient-5">
            <stop stop-color="#FFFFFF" offset="0%"></stop>
            <stop stop-color="#EDAE9B" offset="100%"></stop>
        </linearGradient>
    </defs>
    <g id="页面-1" stroke="none" stroke-width="1" fill="none" fill-rule="evenodd">
        <g id="首页" transform="translate(-572.000000, -403.000000)">
            <g id="编组-13" transform="translate(255.000000, 103.000000)">
                <g id="8" transform="translate(317.000000, 300.000000)">
                    <g id="编组">
                        <g id="矩形">
                            <mask id="mask-3" fill="white">
                                <use xlink:href="#path-2"></use>
                            </mask>
                            <use id="蒙版" fill="url(#linearGradient-1)" xlink:href="#path-2"></use>
                            <path d="M-41.8061377,-11.7866773 L314.356615,15.2377231 C318.749522,15.5710417 322.255433,19.0353797 322.641127,23.423998 L332.934315,140.544983 C333.369476,145.49646 329.708278,149.863194 324.756801,150.298355 C324.268237,150.341292 323.776981,150.344222 323.28794,150.307115 L-32.8748128,123.282715 C-37.2677196,122.949396 -40.7736301,119.485058 -41.1593243,115.09644 L-51.4525123,-2.02454485 C-51.8876733,-6.97602229 -48.2264755,-11.3427556 -43.274998,-11.7779166 C-42.7864345,-11.820854 -42.2951786,-11.823784 -41.8061377,-11.7866773 Z" fill="url(#linearGradient-4)" mask="url(#mask-3)" transform="translate(140.740901, 69.260219) rotate(-24.000000) translate(-140.740901, -69.260219) "></path>
                        </g>
                        <g id="编组-3" transform="translate(99.900000, 42.000000)" fill="#FFFFFF" font-family="PingFangSC-Medium, PingFang SC" font-size="16.2" font-weight="400">
                            <text id="会计云手工全盘帐">
                                <tspan x="0" y="30">会计云手工全盘帐</tspan>
<!--                                <tspan x="0" y="40">实战企业版 V1.0</tspan>-->
                            </text>
                        </g>
                    </g>
                    <g id="网络" transform="translate(27.000000, 39.000000)" fill-rule="nonzero">
                        <rect id="矩形" fill="#000000" opacity="0" x="0" y="0" width="51.3" height="51.3"></rect>
                        <path d="M19.0840681,37.8408315 C20.6268248,39.9142467 22.567952,41.6737165 24.7941964,43.0058873 L24.7941964,36.5903739 C22.7944085,36.7233147 20.8762835,37.1548828 19.0840681,37.8408315 Z M16.4920982,39.0570871 C15.4215109,39.6586024 14.4094087,40.3587376 13.4689621,41.1483817 L13.4051283,41.1483817 C16.2665458,43.5647712 19.8265681,45.1797991 23.7390569,45.6473772 C20.8669922,44.0055804 18.3915402,41.7490513 16.4920982,39.0570871 Z M15.2510324,27.50625 C15.4521261,30.3561663 16.2598661,33.0385882 17.5457813,35.4251953 C19.8009542,34.4949609 22.2404464,33.9207087 24.7941964,33.7723493 L24.7941964,27.50625 L15.2510324,27.50625 Z M12.4323047,27.50625 L6.46196987,27.50625 C6.77817522,31.9869141 8.59379464,36.0536384 11.4101116,39.2077065 C12.5259349,38.2426569 13.7337262,37.389381 15.0161384,36.6601339 C13.5467578,33.9008203 12.6353069,30.7993862 12.4322545,27.50625 L12.4323047,27.50625 Z M34.8250279,35.4798884 C36.1283203,33.0795703 36.9470089,30.3779632 37.1498605,27.50625 L27.5564732,27.50625 L27.5564732,33.7790792 C30.1194643,33.9405469 32.5659877,34.5311719 34.8250279,35.4798884 Z M37.3465848,36.7306473 C38.5747632,37.4393441 39.7333987,38.2622422 40.807115,39.1884208 C43.6135882,36.037115 45.4224777,31.9778237 45.7380301,27.50625 L39.9685379,27.50625 C39.7636272,30.8275112 38.8381641,33.9537556 37.3465848,36.7306473 L37.3465848,36.7306473 Z M27.5564732,43.0349665 C29.7860826,41.7097266 31.7317299,39.9566853 33.2801618,37.889096 C31.4854353,37.1879799 29.5626395,36.7427511 27.5564732,36.598058 L27.5564732,43.0349665 Z M28.7164788,45.6151339 C32.5284208,45.1089342 35.9958817,43.5120368 38.7948717,41.1484319 L38.7705636,41.1484319 C37.8638338,40.387091 36.8904331,39.7088874 35.8621373,39.1220257 C33.9809766,41.7679353 31.5419364,43.9895089 28.7164788,45.6151339 L28.7164788,45.6151339 Z M17.5511049,16.7649107 C16.2620759,19.154029 15.4524275,21.8399665 15.2510324,24.69375 L24.7941964,24.69375 L24.7941964,18.4100223 C22.2426563,18.2635714 19.8050223,17.691981 17.5511049,16.7649107 L17.5511049,16.7649107 Z M15.0200056,15.5325335 C13.7372982,14.8048158 12.5290394,13.9530731 11.4125725,12.9895312 C8.59484933,16.1440011 6.77827567,20.2118304 6.46196987,24.69375 L12.4322545,24.69375 C12.6355078,21.3977009 13.548365,18.2937054 15.0200056,15.5325335 L15.0200056,15.5325335 Z M24.7941964,9.19411272 C22.5714676,10.5241741 20.6329018,12.2802288 19.0913002,14.3494252 C20.8816574,15.0321094 22.7972712,15.4609654 24.7941964,15.5921484 L24.7941964,9.19411272 Z M23.7390569,6.55262277 C19.8365625,7.01899554 16.2847768,8.62699219 13.4271261,11.0330357 L13.4531417,11.0330357 C14.3996551,11.8277934 15.4187422,12.5318692 16.4969699,13.1359821 C18.3958092,10.4470313 20.8694029,8.19301339 23.7390569,6.55262277 L23.7390569,6.55262277 Z M33.2668527,14.2914174 C31.7205804,12.2314621 29.7797042,10.4846987 27.5564732,9.16322545 L27.5564732,15.5822545 C29.5578181,15.4363058 31.476144,14.9911272 33.2668527,14.2914174 Z M35.8490792,13.0578348 C36.8763564,12.4713433 37.8488255,11.7936826 38.7547433,11.0330357 L38.7728739,11.0330357 C35.9787054,8.68042969 32.5209375,7.09086496 28.7205469,6.5853683 C31.5377176,8.20707589 33.9706306,10.4212667 35.8490792,13.0578348 L35.8490792,13.0578348 Z M37.1499609,24.69375 C36.946808,21.8138002 36.1242522,19.1048103 34.8146819,16.699269 C32.5587054,17.647433 30.115798,18.2383092 27.5564732,18.4013839 L27.5564732,24.69375 L37.1499609,24.69375 Z M39.9686384,24.69375 L45.7380301,24.69375 C45.421875,20.2135882 43.6066071,16.1472656 40.7908426,12.9933482 C39.7187798,13.9180655 38.5620604,14.7398256 37.3359877,15.4477567 C38.8340458,18.2301228 39.7634263,21.3639509 39.9686886,24.69375 L39.9686384,24.69375 Z M26.1,48.6 C13.6735714,48.6 3.6,38.5264286 3.6,26.1 C3.6,13.6735714 13.6735714,3.6 26.1,3.6 C38.5264286,3.6 48.6,13.6735714 48.6,26.1 C48.6,38.5264286 38.5264286,48.6 26.1,48.6 Z" id="形状" fill="url(#linearGradient-5)"></path>
                    </g>
                </g>
            </g>
        </g>
    </g>
</svg>
