<?xml version="1.0" encoding="UTF-8"?>
<svg width="297px" height="130px" viewBox="0 0 297 130" version="1.1" xmlns="http://www.w3.org/2000/svg" xmlns:xlink="http://www.w3.org/1999/xlink">
    <title>9</title>
    <defs>
        <linearGradient x1="2.25819807%" y1="62.4525316%" x2="100%" y2="39.0415664%" id="linearGradient-1">
            <stop stop-color="#D1640D" offset="0%"></stop>
            <stop stop-color="#F6E064" offset="100%"></stop>
        </linearGradient>
        <rect id="path-2" x="0" y="0" width="297" height="130" rx="9"></rect>
        <linearGradient x1="2.25819807%" y1="61.6748312%" x2="100%" y2="39.7259556%" id="linearGradient-4">
            <stop stop-color="#D1640D" offset="0%"></stop>
            <stop stop-color="#F6E064" offset="100%"></stop>
        </linearGradient>
        <linearGradient x1="50%" y1="0%" x2="50%" y2="100%" id="linearGradient-5">
            <stop stop-color="#FFFFFF" offset="0%"></stop>
            <stop stop-color="#F6D0A0" offset="100%"></stop>
        </linearGradient>
    </defs>
    <g id="页面-1" stroke="none" stroke-width="1" fill="none" fill-rule="evenodd">
        <g id="首页" transform="translate(-889.000000, -403.000000)">
            <g id="编组-13" transform="translate(255.000000, 103.000000)">
                <g id="编组" transform="translate(634.000000, 300.000000)">
                    <g id="矩形">
                        <mask id="mask-3" fill="white">
                            <use xlink:href="#path-2"></use>
                        </mask>
                        <use id="蒙版" fill="url(#linearGradient-1)" xlink:href="#path-2"></use>
                        <path d="M-41.8061377,-11.7866773 L314.356615,15.2377231 C318.749522,15.5710417 322.255433,19.0353797 322.641127,23.423998 L332.934315,140.544983 C333.369476,145.49646 329.708278,149.863194 324.756801,150.298355 C324.268237,150.341292 323.776981,150.344222 323.28794,150.307115 L-32.8748128,123.282715 C-37.2677196,122.949396 -40.7736301,119.485058 -41.1593243,115.09644 L-51.4525123,-2.02454485 C-51.8876733,-6.97602229 -48.2264755,-11.3427556 -43.274998,-11.7779166 C-42.7864345,-11.820854 -42.2951786,-11.823784 -41.8061377,-11.7866773 Z" fill="url(#linearGradient-4)" mask="url(#mask-3)" transform="translate(140.740901, 69.260219) rotate(-24.000000) translate(-140.740901, -69.260219) "></path>
                    </g>
                    <g id="编组-12" transform="translate(26.100000, 39.000000)">
                        <g id="编组-3" transform="translate(73.800000, 1.800000)" fill="#FFFFFF" font-family="PingFangSC-Medium, PingFang SC" font-size="16.2" font-weight="400">
                            <text id="出纳云手工全盘帐">
                                <tspan x="0" y="30">出纳云手工全盘帐</tspan>
<!--                                <tspan x="0" y="40">系统 实战企业版 V1.0</tspan>-->
                            </text>
                        </g>
                        <g id="客户管理" fill-rule="nonzero">
                            <rect id="矩形" fill="#000000" opacity="0" x="0" y="0" width="55.8" height="55.8"></rect>
                            <path d="M34.7770956,22.4050443 C37.4666451,20.2804198 39.1869779,17.0313851 39.1869779,13.3893208 C39.1869779,6.98868463 33.8753849,1.8 27.3232575,1.8 C20.7711302,1.8 15.4595372,6.98873957 15.4595372,13.3893208 C15.4595372,17.1900918 17.3324897,20.5634869 20.2259072,22.6769009 C13.3348437,25.0319468 8.23499435,31.3576259 8.23499435,43.5868289 C8.23499435,45.6058323 8.93508731,45.8712042 16.4284163,45.8712042 C19.1024394,45.8712042 22.6426201,45.8373527 27.3232575,45.8373527 C32.9645609,45.8373527 37.053565,45.9 40.0124632,45.9 C46.5983998,45.9 47.5799362,45.589456 47.5799362,43.5868289 C47.5799362,30.5777213 42.7845387,24.4599874 34.7770956,22.4050443 Z M27.3232576,5.27643357 C31.9026361,5.27643357 35.6282331,8.91586016 35.6282331,13.3893208 C35.6282331,17.8627814 31.9026361,21.502208 27.3232576,21.502208 C22.7438791,21.502208 19.0182821,17.8627814 19.0182821,13.3893208 C19.0182821,8.91586016 22.7439353,5.27643357 27.3232576,5.27643357 Z M40.0124632,42.4235665 C38.7776107,42.4235665 37.3446281,42.4125207 35.6824629,42.3998264 C33.3648712,42.3820764 30.6060157,42.3609741 27.3232576,42.3609741 C24.6508096,42.3609741 22.3492506,42.3719649 20.367726,42.3814719 C18.8802887,42.3885609 17.5744986,42.3948256 16.4284726,42.3948256 C15.3461272,42.3948256 13.2373539,42.3948256 11.8143848,42.3081085 C12.1840361,31.0093835 17.5271881,25.0488725 27.3233138,25.0488725 C35.7534004,25.0488725 43.5719956,27.170035 44.0004333,42.33608 C42.6890741,42.4235665 40.7889504,42.4235665 40.0124632,42.4235665 Z M12.8100413,25.0789872 L13.2675066,25.0789872 C14.1825497,24.855545 14.640015,24.1851634 14.640015,23.2913395 C14.640015,22.3974607 14.1825497,21.727079 13.2675066,21.5036368 C11.2087439,20.609813 9.83623547,18.598668 9.83623547,16.3640259 C9.83623547,13.6824994 11.4375328,11.6714094 13.9537045,10.7775856 C14.4112261,9.43682226 15.0974804,8.31950125 15.7837346,7.42567735 C15.7837346,7.20223512 16.0124672,6.97873796 16.2412561,6.75529573 C16.0124672,6.75529573 16.0124672,6.75529573 15.7837346,6.75529573 C10.2937571,6.75529573 5.94749909,11.0009728 5.94749909,16.3640259 C5.94749909,18.8221102 6.86248595,21.0566424 8.46372706,22.8443451 C3.43127107,25.3024844 0,30.4420403 0,36.2519779 L0,39.1569466 C0,40.2742677 0.914986857,41.1680916 2.05876266,41.1680916 L5.49003378,41.1680916 C5.49003378,39.8273283 5.71876644,38.486565 5.94755533,37.3693539 L3.88879267,37.3693539 L3.88879267,36.2520328 C3.88879267,30.8889798 7.54874015,26.4197505 12.8100413,25.0789872 L12.8100413,25.0789872 L12.8100413,25.0789872 M46.436273,22.6210128 C48.0375141,20.8333101 48.952501,18.5987779 48.952501,16.1406936 C48.952501,11.0011377 44.6062992,6.53196343 39.1162655,6.53196343 C38.8875328,6.53196343 38.8875328,6.53196343 38.658744,6.53196343 C38.8875328,6.97884789 39.1162655,7.20234505 39.1162655,7.42578728 C39.8025197,8.54310834 40.488774,9.66037442 40.9462955,10.7776955 C43.2337908,11.4480771 45.0637646,13.6826642 45.0637646,16.1406936 C45.0637646,18.3752808 43.6912561,20.3863707 41.6324935,21.2802495 C40.9462393,21.5036917 40.259985,22.1740734 40.259985,23.0678973 C40.259985,23.9617761 40.9462392,24.6321577 41.6324935,24.8556 L42.0899588,24.8556 C47.3512036,26.1963632 51.0112074,30.6655375 51.0112074,35.8050934 L51.0112074,36.9224145 L48.9524447,36.9224144 C49.1812336,38.2631777 49.4099662,39.3804987 49.4099662,40.721262 L52.8412373,40.721262 C53.9850131,40.721262 54.9,39.8273832 54.9,38.7101171 L54.9,35.8050934 C54.9,30.4420403 51.4687289,25.3024844 46.436273,22.6210128 L46.436273,22.6210128 L46.436273,22.6210128" id="形状" fill="url(#linearGradient-5)"></path>
                        </g>
                    </g>
                </g>
            </g>
        </g>
    </g>
</svg>
