<?xml version="1.0" encoding="UTF-8"?>
<svg width="12px" height="15px" viewBox="0 0 12 15" version="1.1" xmlns="http://www.w3.org/2000/svg" xmlns:xlink="http://www.w3.org/1999/xlink">
    <title>手机号</title>
    <g id="页面-1" stroke="none" stroke-width="1" fill="none" fill-rule="evenodd" fill-opacity="0.25">
        <g id="登录备份" transform="translate(-550.000000, -332.000000)" fill="#000000" fill-rule="nonzero">
            <g id="编组" transform="translate(550.953125, 327.000000)">
                <g id="手机号" transform="translate(0.000000, 5.000000)">
                    <path d="M8.9671875,0.0125 L1.1375,0.0125 C0.515625,0.0125 0.0125,0.515625 0.0125,1.1375 L0.0125,12.9046875 C0.0125,13.5265625 0.515625,14.0296875 1.1375,14.0296875 L8.9671875,14.0296875 C9.5890625,14.0296875 10.0921875,13.5265625 10.0921875,12.9046875 L10.0921875,1.1375 C10.0921875,0.515625 9.5875,0.0125 8.9671875,0.0125 Z M1.1375,1.1375 L8.9671875,1.1375 L8.9671875,1.1375 L8.9671875,9.3109375 L1.1375,9.3109375 L1.1375,1.1375 C1.1375,1.1375 1.1375,1.1375 1.1375,1.1375 Z M8.9671875,12.9046875 L1.1375,12.9046875 C1.1375,12.9046875 1.1375,12.9046875 1.1375,12.9046875 L1.1375,10.4359375 L8.9671875,10.4359375 L8.9671875,12.9046875 C8.9671875,12.9046875 8.9671875,12.9046875 8.9671875,12.9046875 Z" id="Shape"></path>
                    <path d="M5.578125,11.075 L4.609375,11.075 C4.2984375,11.075 4.046875,11.3265625 4.046875,11.6375 C4.046875,11.9484375 4.2984375,12.2 4.609375,12.2 L5.578125,12.2 C5.8890625,12.2 6.140625,11.9484375 6.140625,11.6375 C6.140625,11.3265625 5.8890625,11.075 5.578125,11.075 Z" id="Shape"></path>
                </g>
            </g>
        </g>
    </g>
</svg>
