<?xml version="1.0" encoding="UTF-8"?>
<svg width="363px" height="336px" viewBox="0 0 363 336" version="1.1" xmlns="http://www.w3.org/2000/svg" xmlns:xlink="http://www.w3.org/1999/xlink">
    <title>Group 19</title>
    <g id="页面-1" stroke="none" stroke-width="1" fill="none" fill-rule="evenodd" opacity="0.200000003">
        <g id="首页" transform="translate(-1198.000000, -378.000000)">
            <g id="Group-19" transform="translate(1375.888602, 547.791478) rotate(-10.000000) translate(-1375.888602, -547.791478) translate(1212.388602, 404.291478)">
                <g id="Group-17" transform="translate(141.333539, 153.502742) rotate(275.000000) translate(-141.333539, -153.502742) translate(129.333539, 141.502742)" fill="#BACAD9">
                    <circle id="Oval-4" opacity="0.45" cx="11.6666667" cy="11.6666667" r="11.6666667"></circle>
                    <path d="M23.3333333,23.3333333 C23.3333333,16.8900113 18.1099887,11.6666667 11.6666667,11.6666667 C5.22334459,11.6666667 0,16.8900113 0,23.3333333 L23.3333333,23.3333333 Z" id="Oval-4" transform="translate(11.666667, 17.500000) scale(-1, -1) translate(-11.666667, -17.500000) "></path>
                </g>
                <circle id="Oval-5-Copy-6" fill="#CFDAE6" cx="201.833333" cy="136.5" r="5.83333333"></circle>
                <line x1="143.5" y1="137.812668" x2="155.070501" y2="66.6038544" id="Path-17" stroke="#BACAD9" stroke-width="1.16666667"></line>
                <line x1="17.5" y1="86.3333333" x2="127.466252" y2="146.644974" id="Path-18" stroke="#BACAD9" stroke-width="1.16666667"></line>
                <polyline id="Path-19" stroke="#CFDAE6" stroke-width="1.16666667" points="143.902597 169.302281 174.935455 280.571342 38.5 196.510847 126.366941 159.833333"></polyline>
                <line x1="159.833333" y1="148.745384" x2="195.416667" y2="138.25" id="Path-20" stroke="#E0B4B7" stroke-width="1.16666667" opacity="0.6"></line>
                <line x1="205.333333" y1="131.13721" x2="238.719406" y2="85.1666667" id="Path-24" stroke="#BACAD9" stroke-width="1.16666667"></line>
                <line x1="266.723424" y1="181.231988" x2="207.083333" y2="139.416667" id="Path-25" stroke="#CFDAE6" stroke-width="1.16666667"></line>
                <circle id="Oval-5" fill="#C1D1E0" cx="156.916667" cy="57.75" r="8.75"></circle>
                <circle id="Oval-5-Copy" fill="#D3DDE6" cx="271.25" cy="184.916667" r="8.75"></circle>
                <circle id="Oval-5-Copy-3" fill="#C1D1E0" cx="39.0833333" cy="197.75" r="5.25"></circle>
                <circle id="Oval-5-Copy-2" fill-opacity="0.6" fill="#D1DEED" cx="8.75" cy="82.25" r="8.75"></circle>
                <circle id="Oval-5-Copy-4" fill-opacity="0.6" fill="#D1DEED" cx="243.833333" cy="79.3333333" r="5.83333333"></circle>
                <circle id="Oval-5-Copy-5" fill="#E0B4B7" cx="175.583333" cy="281.75" r="5.25"></circle>
            </g>
        </g>
    </g>
</svg>
