<?xml version="1.0" encoding="UTF-8"?>
<svg width="450px" height="56px" viewBox="0 0 450 56" version="1.1" xmlns="http://www.w3.org/2000/svg" xmlns:xlink="http://www.w3.org/1999/xlink">
    <title>标题</title>
    <g id="页面-1" stroke="none" stroke-width="1" fill="none" fill-rule="evenodd">
        <g id="首页" transform="translate(-539.000000, -63.000000)" fill="#FFFFFF">
            <g id="标题" transform="translate(539.000000, 63.000000)">
                <text id="浪潮云会计实训系统" font-family="PingFangSC-Semibold, PingFang SC" font-size="40" font-weight="500">
                    <tspan x="82" y="42">浪潮云会计实训系统</tspan>
                </text>
                <g id="20:20" transform="translate(0.000000, 4.000000)" fill-rule="nonzero">
                    <path d="M40.307323,16 C41.8627372,16 43.1236495,17.2458163 43.1236495,18.7826087 C43.1236495,20.2495468 41.9747604,21.4513602 40.5175088,21.5575851 L40.307323,21.5652174 L16.1938776,21.5652174 C10.3610743,21.5652174 5.63265306,26.2370287 5.63265306,32 C5.63265306,37.6499719 10.177464,42.2511548 15.8520726,42.4294211 L16.1938776,42.4347826 L52.8061224,42.4347826 C58.6389257,42.4347826 63.3673469,37.7629713 63.3673469,32 C63.3673469,26.3500281 58.822536,21.7488452 53.1479274,21.5705789 L52.8061224,21.5652174 L50.6938776,21.5652174 C49.1384634,21.5652174 47.877551,20.319401 47.877551,18.7826087 C47.877551,17.3156705 49.0264402,16.1138572 50.4836918,16.0076323 L50.6938776,16 L52.8061224,16 C61.7497541,16 69,23.163444 69,32 C69,40.700609 61.9711225,47.7791903 53.2176828,47.9949335 L52.8061224,48 L16.1938776,48 C7.25024594,48 0,40.836556 0,32 C0,23.299391 7.02887748,16.2208097 15.7823172,16.0050665 L16.1938776,16 L40.307323,16 Z" id="形状结合"></path>
                    <path d="M34.9142918,0 C44.9027526,0 53,8.14841755 53,18.2 C53,19.7463973 51.7542696,21 50.2175834,21 C48.6808971,21 47.4351667,19.7463973 47.4351667,18.2 C47.4351667,11.2412122 41.8293801,5.6 34.9142918,5.6 C30.4623272,5.6 26.4186426,7.95487246 24.1686561,11.728049 C23.3779607,13.0540273 21.6688078,13.4839092 20.3511563,12.688217 C19.0335048,11.8925248 18.6063225,10.172571 19.3970179,8.84659268 C22.6426411,3.40375601 28.4874229,0 34.9142918,0 Z" id="路径"></path>
                    <path d="M40.2401399,29 C41.7643685,29 43,30.3431458 43,32 C43,33.5815427 41.8741457,34.8772477 40.4461115,34.9917714 L40.2401399,35 L15.7598601,35 C14.2356315,35 13,33.6568542 13,32 C13,30.4184573 14.1258543,29.1227523 15.5538885,29.0082286 L15.7598601,29 L40.2401399,29 Z" id="路径-2"></path>
                </g>
            </g>
        </g>
    </g>
</svg>
